# xmcd
#
# Track frame offsets:
#	150
#	23885
#	41695
#	63970
#	84264
#	106273
#	126413
#	147296
#	162071
#	179841
#
# Disc length: 2600 seconds
# Revision: 0
# Processed by: cddbd v1.5.2PL0 Copyright (c) Steve Scherf et al.
# Submitted via: dBpowerAMP V12.0
#
DISCID=840a260a
DTITLE=Waydown Wailers - Empty Promises
DYEAR=2005
DGENRE=Blues
TTITLE0=Don't let Life Pass You By
TTITLE1=Jealousy
TTITLE2=Empty Promises
TTITLE3=Waydown Blue
TTITLE4=No Time to Waste
TTITLE5=St. Vraine
TTITLE6=She's Gonna Run
TTITLE7=Suzy Q
TTITLE8=Still Water
TTITLE9=Whiskey and Cornbread
EXTD=
EXTT0=
EXTT1=
EXTT2=
EXTT3=
EXTT4=
EXTT5=
EXTT6=
EXTT7=
EXTT8=
EXTT9=
PLAYORDER=
